<svg width="46" height="46" viewBox="0 0 46 46" fill="none" xmlns="http://www.w3.org/2000/svg">
<mask id="path-1-inside-1_73_1638" fill="white">
<path d="M24.9701 3.83333C27.1264 3.83908 28.2208 3.85058 29.1657 3.87742L29.5375 3.89083C29.9669 3.90617 30.3905 3.92533 30.9022 3.94833C32.9415 4.04417 34.333 4.36617 35.554 4.83958C36.819 5.32642 37.8846 5.98575 38.9503 7.0495C39.9253 8.00732 40.6795 9.16641 41.1602 10.4458C41.6336 11.6668 41.9556 13.0583 42.0515 15.0995C42.0745 15.6093 42.0936 16.0329 42.109 16.4642L42.1205 16.836C42.1492 17.779 42.1607 18.8734 42.1645 21.0297L42.1665 22.4595V24.9703C42.1711 26.3684 42.1564 27.7664 42.1224 29.164L42.1109 29.5358C42.0955 29.9671 42.0764 30.3907 42.0534 30.9005C41.9575 32.9418 41.6317 34.3313 41.1602 35.5542C40.6795 36.8336 39.9253 37.9927 38.9503 38.9505C37.9925 39.9255 36.8334 40.6797 35.554 41.1604C34.333 41.6338 32.9415 41.9558 30.9022 42.0517L29.5375 42.1092L29.1657 42.1207C28.2208 42.1475 27.1264 42.1609 24.9701 42.1648L23.5403 42.1667H21.0314C19.6327 42.1716 18.234 42.1569 16.8358 42.1226L16.464 42.1111C16.009 42.0939 15.5541 42.074 15.0993 42.0517C13.06 41.9558 11.6685 41.6338 10.4456 41.1604C9.16688 40.6794 8.00847 39.9253 7.0512 38.9505C6.07552 37.9929 5.32066 36.8338 4.83937 35.5542C4.36595 34.3333 4.04395 32.9418 3.94812 30.9005L3.89062 29.5358L3.88104 29.164C3.84571 27.7664 3.82973 26.3684 3.83312 24.9703V21.0297C3.82782 19.6317 3.84187 18.2336 3.87529 16.836L3.8887 16.4642C3.90404 16.0329 3.9232 15.6093 3.9462 15.0995C4.04204 13.0583 4.36404 11.6687 4.83745 10.4458C5.31987 9.16588 6.07605 8.00675 7.05312 7.0495C8.00983 6.07497 9.16756 5.32081 10.4456 4.83958C11.6685 4.36617 13.058 4.04417 15.0993 3.94833C15.6091 3.92533 16.0346 3.90617 16.464 3.89083L16.8358 3.87933C18.2334 3.84528 19.6314 3.83058 21.0295 3.83525L24.9701 3.83333ZM22.9998 13.4167C20.4581 13.4167 18.0206 14.4263 16.2233 16.2236C14.4261 18.0208 13.4165 20.4583 13.4165 23C13.4165 25.5417 14.4261 27.9792 16.2233 29.7764C18.0206 31.5737 20.4581 32.5833 22.9998 32.5833C25.5414 32.5833 27.979 31.5737 29.7762 29.7764C31.5735 27.9792 32.5831 25.5417 32.5831 23C32.5831 20.4583 31.5735 18.0208 29.7762 16.2236C27.979 14.4263 25.5414 13.4167 22.9998 13.4167ZM22.9998 17.25C23.7549 17.2499 24.5026 17.3985 25.2003 17.6873C25.898 17.9762 26.5319 18.3996 27.0659 18.9335C27.6 19.4673 28.0236 20.1011 28.3127 20.7987C28.6018 21.4963 28.7506 22.2439 28.7507 22.999C28.7509 23.7541 28.6023 24.5019 28.3134 25.1995C28.0246 25.8972 27.6011 26.5312 27.0673 27.0652C26.5334 27.5992 25.8996 28.0229 25.2021 28.3119C24.5045 28.601 23.7568 28.7499 23.0017 28.75C21.4767 28.75 20.0142 28.1442 18.9358 27.0659C17.8575 25.9875 17.2517 24.525 17.2517 23C17.2517 21.475 17.8575 20.0125 18.9358 18.9341C20.0142 17.8558 21.4767 17.25 23.0017 17.25M33.0642 10.5417C32.4288 10.5417 31.8194 10.7941 31.3701 11.2434C30.9208 11.6927 30.6684 12.3021 30.6684 12.9375C30.6684 13.5729 30.9208 14.1823 31.3701 14.6316C31.8194 15.0809 32.4288 15.3333 33.0642 15.3333C33.6996 15.3333 34.309 15.0809 34.7583 14.6316C35.2076 14.1823 35.46 13.5729 35.46 12.9375C35.46 12.3021 35.2076 11.6927 34.7583 11.2434C34.309 10.7941 33.6996 10.5417 33.0642 10.5417Z"/>
</mask>
<path d="M24.9701 3.83333L24.9728 2.83333L24.9696 2.83333L24.9701 3.83333ZM29.1657 3.87742L29.2018 2.87804L29.1941 2.87782L29.1657 3.87742ZM29.5375 3.89083L29.5015 4.89018L29.5018 4.8902L29.5375 3.89083ZM30.9022 3.94833L30.9491 2.94943L30.9471 2.94934L30.9022 3.94833ZM35.554 4.83958L35.1924 5.77195L35.1948 5.77286L35.554 4.83958ZM38.9503 7.0495L38.2438 7.75727L38.2495 7.76286L38.9503 7.0495ZM41.1602 10.4458L40.2241 10.7976L40.2278 10.8074L41.1602 10.4458ZM42.0515 15.0995L43.0504 15.0544L43.0504 15.0526L42.0515 15.0995ZM42.109 16.4642L43.1085 16.4333L43.1083 16.4286L42.109 16.4642ZM42.1205 16.836L43.12 16.8055L43.12 16.8051L42.1205 16.836ZM42.1645 21.0297L43.1645 21.0283V21.0279L42.1645 21.0297ZM42.1665 22.4595H43.1665L43.1665 22.4582L42.1665 22.4595ZM42.1665 24.9703H41.1664L41.1665 24.9737L42.1665 24.9703ZM42.1224 29.164L43.1219 29.1949L43.1221 29.1884L42.1224 29.164ZM42.1109 29.5358L43.1102 29.5714L43.1104 29.5667L42.1109 29.5358ZM42.0534 30.9005L43.0523 30.9474L43.0524 30.9456L42.0534 30.9005ZM41.1602 35.5542L40.2271 35.1944L40.2241 35.2024L41.1602 35.5542ZM38.9503 38.9505L38.2495 38.2371L38.2432 38.2434L38.2369 38.2497L38.9503 38.9505ZM35.554 41.1604L35.2022 40.2243L35.1924 40.2281L35.554 41.1604ZM30.9022 42.0517L30.9443 43.0508L30.9491 43.0506L30.9022 42.0517ZM29.5375 42.1092L29.5685 43.1088L29.5796 43.1083L29.5375 42.1092ZM29.1657 42.1207L29.1941 43.1203L29.1966 43.1202L29.1657 42.1207ZM24.9701 42.1648L24.9715 43.1648H24.9719L24.9701 42.1648ZM23.5403 42.1667V43.1667H23.5416L23.5403 42.1667ZM21.0314 42.1667V41.1667L21.0278 41.1667L21.0314 42.1667ZM16.8358 42.1226L16.8049 43.1221L16.8113 43.1223L16.8358 42.1226ZM16.464 42.1111L16.4261 43.1104L16.433 43.1106L16.464 42.1111ZM15.0993 42.0517L15.1484 41.0529L15.1462 41.0528L15.0993 42.0517ZM10.4456 41.1604L10.8067 40.2278L10.7977 40.2244L10.4456 41.1604ZM7.0512 38.9505L7.76469 38.2498L7.75824 38.2433L7.75168 38.2368L7.0512 38.9505ZM4.83937 35.5542L5.7754 35.2021L5.77173 35.1926L4.83937 35.5542ZM3.94812 30.9005L2.949 30.9426L2.94922 30.9474L3.94812 30.9005ZM3.89062 29.5358L2.89095 29.5616L2.89116 29.5698L2.89151 29.5779L3.89062 29.5358ZM3.88104 29.164L2.88136 29.1893L2.88137 29.1898L3.88104 29.164ZM3.83312 24.9703L4.83312 24.9728V24.9703H3.83312ZM3.83312 21.0297H4.83313L4.83311 21.0259L3.83312 21.0297ZM3.87529 16.836L2.87586 16.7999L2.87557 16.8121L3.87529 16.836ZM3.8887 16.4642L4.88805 16.5002L4.88807 16.4997L3.8887 16.4642ZM3.9462 15.0995L2.9473 15.0526L2.94722 15.0544L3.9462 15.0995ZM4.83745 10.4458L5.77004 10.8069L5.7732 10.7985L4.83745 10.4458ZM7.05312 7.0495L7.75295 7.76381L7.7599 7.757L7.76672 7.75005L7.05312 7.0495ZM10.4456 4.83958L10.798 5.77548L10.8067 5.77214L10.4456 4.83958ZM15.0993 3.94833L15.0542 2.94935L15.0524 2.94943L15.0993 3.94833ZM16.464 3.89083L16.433 2.8913L16.4283 2.89147L16.464 3.89083ZM16.8358 3.87933L16.8114 2.87961L16.8049 2.87981L16.8358 3.87933ZM21.0295 3.83525L21.0261 4.83525L21.0299 4.83525L21.0295 3.83525ZM22.9998 13.4167V12.4167V13.4167ZM13.4165 23H12.4165H13.4165ZM22.9998 32.5833V31.5833V32.5833ZM32.5831 23H31.5831H32.5831ZM23.0017 28.75V29.75H23.0019L23.0017 28.75ZM24.9701 3.83333L24.9675 4.83333C27.1231 4.83908 28.2064 4.85058 29.1373 4.87701L29.1657 3.87742L29.1941 2.87782C28.2352 2.85059 27.1296 2.83909 24.9728 2.83334L24.9701 3.83333ZM29.1657 3.87742L29.1296 4.87677L29.5015 4.89018L29.5375 3.89083L29.5736 2.89148L29.2018 2.87807L29.1657 3.87742ZM29.5375 3.89083L29.5018 4.8902C29.9257 4.90533 30.3443 4.92427 30.8573 4.94733L30.9022 3.94833L30.9471 2.94934C30.4366 2.9264 30.0081 2.907 29.5732 2.89147L29.5375 3.89083ZM30.9022 3.94833L30.8553 4.94723C32.8012 5.03867 34.0847 5.34241 35.1924 5.77195L35.554 4.83958L35.9155 3.90722C34.5814 3.38993 33.0819 3.04966 30.9491 2.94944L30.9022 3.94833ZM35.554 4.83958L35.1948 5.77286C36.3353 6.21178 37.2812 6.79634 38.2438 7.75724L38.9503 7.0495L39.6568 6.34176C38.4881 5.17516 37.3026 4.44105 35.9131 3.90631L35.554 4.83958ZM38.9503 7.0495L38.2495 7.76286C39.1207 8.6187 39.7946 9.65437 40.2241 10.7976L41.1602 10.4458L42.0963 10.0941C41.5644 8.67845 40.7299 7.39595 39.6511 6.33614L38.9503 7.0495ZM41.1602 10.4458L40.2278 10.8074C40.6574 11.9151 40.9611 13.1985 41.0526 15.1464L42.0515 15.0995L43.0504 15.0526C42.9501 12.918 42.6099 11.4184 42.0926 10.0843L41.1602 10.4458ZM42.0515 15.0995L41.0525 15.1446C41.0755 15.6555 41.0945 16.0741 41.1096 16.4997L42.109 16.4642L43.1083 16.4286C43.0928 15.9917 43.0734 15.5632 43.0504 15.0544L42.0515 15.0995ZM42.109 16.4642L41.1094 16.4951L41.1209 16.8669L42.1205 16.836L43.12 16.8051L43.1085 16.4333L42.109 16.4642ZM42.1205 16.836L41.1209 16.8665C41.1492 17.7939 41.1607 18.8758 41.1645 21.0314L42.1645 21.0297L43.1645 21.0279C43.1607 18.871 43.1492 17.7641 43.12 16.8055L42.1205 16.836ZM42.1645 21.0297L41.1645 21.031L41.1665 22.4608L42.1665 22.4595L43.1665 22.4582L43.1645 21.0283L42.1645 21.0297ZM42.1665 22.4595H41.1665V24.9703H42.1665H43.1665V22.4595H42.1665ZM42.1665 24.9703L41.1665 24.9737C41.1711 26.3625 41.1565 27.7513 41.1227 29.1396L42.1224 29.164L43.1221 29.1884C43.1563 27.7815 43.1711 26.3743 43.1664 24.967L42.1665 24.9703ZM42.1224 29.164L41.1228 29.1331L41.1113 29.5049L42.1109 29.5358L43.1104 29.5667L43.1219 29.1949L42.1224 29.164ZM42.1109 29.5358L41.1115 29.5003C41.0964 29.9259 41.0774 30.3445 41.0544 30.8554L42.0534 30.9005L43.0524 30.9456C43.0753 30.4368 43.0947 30.0083 43.1102 29.5714L42.1109 29.5358ZM42.0534 30.9005L41.0545 30.8536C40.9631 32.7994 40.6561 34.082 40.2272 35.1944L41.1602 35.5542L42.0932 35.9139C42.6073 34.5807 42.952 33.0841 43.0523 30.9474L42.0534 30.9005ZM41.1602 35.5542L40.2241 35.2024C39.7946 36.3456 39.1207 37.3813 38.2495 38.2371L38.9503 38.9505L39.6511 39.6639C40.7299 38.6041 41.5644 37.3216 42.0963 35.9059L41.1602 35.5542ZM38.9503 38.9505L38.2369 38.2497C37.3811 39.1209 36.3454 39.7948 35.2022 40.2243L35.554 41.1604L35.9057 42.0965C37.3213 41.5646 38.6038 40.7301 39.6637 39.6513L38.9503 38.9505ZM35.554 41.1604L35.1924 40.2281C34.0847 40.6576 32.8012 40.9613 30.8553 41.0528L30.9022 42.0517L30.9491 43.0506C33.0819 42.9503 34.5814 42.6101 35.9155 42.0928L35.554 41.1604ZM30.9022 42.0517L30.8601 41.0526L29.4954 41.1101L29.5375 42.1092L29.5796 43.1083L30.9443 43.0508L30.9022 42.0517ZM29.5375 42.1092L29.5066 41.1096L29.1348 41.1211L29.1657 42.1207L29.1966 43.1202L29.5685 43.1087L29.5375 42.1092ZM29.1657 42.1207L29.1373 41.1211C28.206 41.1475 27.1222 41.1609 24.9683 41.1648L24.9701 42.1648L24.9719 43.1648C27.1305 43.1609 28.2356 43.1475 29.1941 43.1203L29.1657 42.1207ZM24.9701 42.1648L24.9688 41.1648L23.5389 41.1667L23.5403 42.1667L23.5416 43.1667L24.9715 43.1648L24.9701 42.1648ZM23.5403 42.1667V41.1667H21.0314V42.1667V43.1667H23.5403V42.1667ZM21.0314 42.1667L21.0278 41.1667C19.6385 41.1716 18.2492 41.157 16.8603 41.1229L16.8358 42.1226L16.8113 43.1223C18.2189 43.1568 19.6269 43.1716 21.0349 43.1667L21.0314 42.1667ZM16.8358 42.1226L16.8667 41.1231L16.4949 41.1116L16.464 42.1111L16.433 43.1106L16.8049 43.1221L16.8358 42.1226ZM16.464 42.1111L16.5018 41.1118C16.0506 41.0947 15.5994 41.0751 15.1484 41.0529L15.0993 42.0517L15.0501 43.0505C15.5087 43.073 15.9673 43.093 16.4261 43.1104L16.464 42.1111ZM15.0993 42.0517L15.1462 41.0528C13.2004 40.9613 11.9167 40.6576 10.8067 40.2279L10.4456 41.1604L10.0846 42.093C11.4202 42.61 12.9195 42.9503 15.0523 43.0506L15.0993 42.0517ZM10.4456 41.1604L10.7977 40.2244C9.65509 39.7947 8.62002 39.1208 7.76469 38.2498L7.0512 38.9505L6.33772 39.6512C7.39692 40.7297 8.67867 41.5642 10.0936 42.0964L10.4456 41.1604ZM7.0512 38.9505L7.75168 38.2368C6.87988 37.3812 6.2054 36.3455 5.77535 35.2021L4.83937 35.5542L3.90339 35.9062C4.43593 37.3221 5.27115 38.6046 6.35073 39.6642L7.0512 38.9505ZM4.83937 35.5542L5.77173 35.1926C5.34222 34.0849 5.03847 32.8015 4.94702 30.8536L3.94812 30.9005L2.94922 30.9474C3.04944 33.082 3.38969 34.5816 3.90701 35.9157L4.83937 35.5542ZM3.94812 30.9005L4.94723 30.8584L4.88973 29.4937L3.89062 29.5358L2.89151 29.5779L2.94901 30.9426L3.94812 30.9005ZM3.89062 29.5358L4.89029 29.5101L4.88071 29.1382L3.88104 29.164L2.88137 29.1898L2.89095 29.5616L3.89062 29.5358ZM3.88104 29.164L4.88072 29.1387C4.84562 27.7504 4.82975 26.3616 4.83312 24.9728L3.83312 24.9703L2.83312 24.9679C2.82971 26.3752 2.84579 27.7824 2.88136 29.1893L3.88104 29.164ZM3.83312 24.9703H4.83312V21.0297H3.83312H2.83312V24.9703H3.83312ZM3.83312 21.0297L4.83311 21.0259C4.82784 19.6371 4.84181 18.2483 4.875 16.8599L3.87529 16.836L2.87557 16.8121C2.84194 18.219 2.82779 19.6262 2.83313 21.0335L3.83312 21.0297ZM3.87529 16.836L4.87464 16.8721L4.88805 16.5002L3.8887 16.4642L2.88936 16.4281L2.87594 16.7999L3.87529 16.836ZM3.8887 16.4642L4.88807 16.4997C4.90321 16.0741 4.92214 15.6555 4.94519 15.1446L3.9462 15.0995L2.94722 15.0544C2.92427 15.5632 2.90487 15.9917 2.88934 16.4286L3.8887 16.4642ZM3.9462 15.0995L4.9451 15.1464C5.03654 13.1988 5.34022 11.917 5.77001 10.8069L4.83745 10.4458L3.9049 10.0848C3.38786 11.4203 3.04754 12.9177 2.94731 15.0526L3.9462 15.0995ZM4.83745 10.4458L5.7732 10.7985C6.20425 9.65485 6.87991 8.61914 7.75295 7.76381L7.05312 7.0495L6.3533 6.33519C5.27219 7.39436 4.43549 8.67691 3.90171 10.0932L4.83745 10.4458ZM7.05312 7.0495L7.76672 7.75005C8.62156 6.87929 9.65603 6.20543 10.798 5.77544L10.4456 4.83958L10.0932 3.90373C8.6791 4.43619 7.3981 5.27065 6.33952 6.34895L7.05312 7.0495ZM10.4456 4.83958L10.8067 5.77214C11.9168 5.34235 13.1986 5.03867 15.1462 4.94723L15.0993 3.94833L15.0524 2.94943C12.9175 3.04967 11.4201 3.38999 10.0846 3.90703L10.4456 4.83958ZM15.0993 3.94833L15.1444 4.94732C15.6551 4.92428 16.0758 4.90533 16.4996 4.8902L16.464 3.89083L16.4283 2.89147C15.9934 2.907 15.5631 2.92639 15.0542 2.94935L15.0993 3.94833ZM16.464 3.89083L16.4949 4.89036L16.8667 4.87886L16.8358 3.87933L16.8049 2.87981L16.433 2.89131L16.464 3.89083ZM16.8358 3.87933L16.8601 4.87904C18.2485 4.84521 19.6373 4.83061 21.0261 4.83524L21.0295 3.83525L21.0328 2.83526C19.6255 2.83056 18.2183 2.84535 16.8114 2.87963L16.8358 3.87933ZM21.0295 3.83525L21.0299 4.83525L24.9706 4.83333L24.9701 3.83333L24.9696 2.83333L21.029 2.83525L21.0295 3.83525ZM22.9998 13.4167V12.4167C20.1929 12.4167 17.501 13.5317 15.5162 15.5165L16.2233 16.2236L16.9305 16.9307C18.5401 15.321 20.7233 14.4167 22.9998 14.4167V13.4167ZM16.2233 16.2236L15.5162 15.5165C13.5315 17.5012 12.4165 20.1931 12.4165 23H13.4165H14.4165C14.4165 20.7236 15.3208 18.5404 16.9305 16.9307L16.2233 16.2236ZM13.4165 23H12.4165C12.4165 25.8069 13.5315 28.4988 15.5162 30.4835L16.2233 29.7764L16.9305 29.0693C15.3208 27.4596 14.4165 25.2764 14.4165 23H13.4165ZM16.2233 29.7764L15.5162 30.4835C17.501 32.4683 20.1929 33.5833 22.9998 33.5833V32.5833V31.5833C20.7233 31.5833 18.5401 30.679 16.9305 29.0693L16.2233 29.7764ZM22.9998 32.5833V33.5833C25.8067 33.5833 28.4986 32.4683 30.4833 30.4835L29.7762 29.7764L29.0691 29.0693C27.4594 30.679 25.2762 31.5833 22.9998 31.5833V32.5833ZM29.7762 29.7764L30.4833 30.4835C32.4681 28.4988 33.5831 25.8069 33.5831 23H32.5831H31.5831C31.5831 25.2764 30.6788 27.4596 29.0691 29.0693L29.7762 29.7764ZM32.5831 23H33.5831C33.5831 20.1931 32.4681 17.5012 30.4833 15.5165L29.7762 16.2236L29.0691 16.9307C30.6788 18.5404 31.5831 20.7236 31.5831 23H32.5831ZM29.7762 16.2236L30.4833 15.5165C28.4986 13.5317 25.8067 12.4167 22.9998 12.4167V13.4167V14.4167C25.2762 14.4167 27.4594 15.321 29.0691 16.9307L29.7762 16.2236ZM22.9998 17.25L23 18.25C23.6237 18.2499 24.2414 18.3727 24.8178 18.6113L25.2003 17.6873L25.5828 16.7634C24.7638 16.4243 23.886 16.2499 22.9996 16.25L22.9998 17.25ZM25.2003 17.6873L24.8178 18.6113C25.3941 18.8499 25.9178 19.1997 26.3589 19.6407L27.0659 18.9335L27.7729 18.2262C27.146 17.5995 26.4018 17.1025 25.5828 16.7634L25.2003 17.6873ZM27.0659 18.9335L26.3589 19.6407C26.8001 20.0817 27.1501 20.6053 27.3889 21.1815L28.3127 20.7987L29.2365 20.4158C28.8971 19.597 28.3998 18.8529 27.7729 18.2262L27.0659 18.9335ZM28.3127 20.7987L27.3889 21.1815C27.6277 21.7578 27.7506 22.3754 27.7507 22.9992L28.7507 22.999L29.7507 22.9989C29.7506 22.1125 29.5759 21.2347 29.2365 20.4158L28.3127 20.7987ZM28.7507 22.999L27.7507 22.9992C27.7508 23.623 27.6281 24.2407 27.3895 24.817L28.3134 25.1995L29.2374 25.5821C29.5764 24.7631 29.7509 23.8853 29.7507 22.9989L28.7507 22.999ZM28.3134 25.1995L27.3895 24.817C27.1509 25.3934 26.8011 25.917 26.3601 26.3582L27.0673 27.0652L27.7745 27.7722C28.4012 27.1453 28.8983 26.4011 29.2374 25.5821L28.3134 25.1995ZM27.0673 27.0652L26.3601 26.3582C25.9191 26.7994 25.3955 27.1493 24.8192 27.3881L25.2021 28.3119L25.5849 29.2358C26.4038 28.8964 27.1478 28.3991 27.7745 27.7722L27.0673 27.0652ZM25.2021 28.3119L24.8192 27.3881C24.243 27.6269 23.6253 27.7499 23.0015 27.75L23.0017 28.75L23.0019 29.75C23.8883 29.7499 24.766 29.5751 25.5849 29.2358L25.2021 28.3119ZM23.0017 28.75V27.75C21.7419 27.75 20.5337 27.2496 19.6429 26.3588L18.9358 27.0659L18.2287 27.773C19.4946 29.0388 21.2115 29.75 23.0017 29.75V28.75ZM18.9358 27.0659L19.6429 26.3588C18.7521 25.468 18.2517 24.2598 18.2517 23H17.2517H16.2517C16.2517 24.7902 16.9629 26.5071 18.2287 27.773L18.9358 27.0659ZM17.2517 23H18.2517C18.2517 21.7402 18.7521 20.532 19.6429 19.6412L18.9358 18.9341L18.2287 18.227C16.9629 19.4929 16.2517 21.2098 16.2517 23H17.2517ZM18.9358 18.9341L19.6429 19.6412C20.5337 18.7504 21.7419 18.25 23.0017 18.25V17.25V16.25C21.2115 16.25 19.4946 16.9612 18.2287 18.227L18.9358 18.9341ZM33.0642 10.5417V9.54167C32.1636 9.54167 31.2998 9.89944 30.663 10.5363L31.3701 11.2434L32.0772 11.9505C32.339 11.6887 32.694 11.5417 33.0642 11.5417V10.5417ZM31.3701 11.2434L30.663 10.5363C30.0261 11.1731 29.6684 12.0369 29.6684 12.9375H30.6684H31.6684C31.6684 12.5673 31.8154 12.2123 32.0772 11.9505L31.3701 11.2434ZM30.6684 12.9375H29.6684C29.6684 13.8381 30.0261 14.7019 30.663 15.3387L31.3701 14.6316L32.0772 13.9245C31.8154 13.6627 31.6684 13.3077 31.6684 12.9375H30.6684ZM31.3701 14.6316L30.663 15.3387C31.2998 15.9756 32.1636 16.3333 33.0642 16.3333V15.3333V14.3333C32.694 14.3333 32.339 14.1863 32.0772 13.9245L31.3701 14.6316ZM33.0642 15.3333V16.3333C33.9648 16.3333 34.8286 15.9756 35.4654 15.3387L34.7583 14.6316L34.0512 13.9245C33.7894 14.1863 33.4344 14.3333 33.0642 14.3333V15.3333ZM34.7583 14.6316L35.4654 15.3387C36.1023 14.7019 36.46 13.8381 36.46 12.9375H35.46H34.46C34.46 13.3077 34.313 13.6627 34.0512 13.9245L34.7583 14.6316ZM35.46 12.9375H36.46C36.46 12.0369 36.1023 11.1731 35.4654 10.5363L34.7583 11.2434L34.0512 11.9505C34.313 12.2123 34.46 12.5673 34.46 12.9375H35.46ZM34.7583 11.2434L35.4654 10.5363C34.8286 9.89944 33.9648 9.54167 33.0642 9.54167V10.5417V11.5417C33.4344 11.5417 33.7894 11.6887 34.0512 11.9505L34.7583 11.2434Z" fill="#FF5A39" mask="url(#path-1-inside-1_73_1638)"/>
</svg>
