<svg width="29" height="29" viewBox="0 0 29 29" fill="none" xmlns="http://www.w3.org/2000/svg">
<path d="M4.26514 14.836C4.34469 15.5644 4.40748 16.7165 4.61262 17.8389C5.17361 20.9265 6.44214 23.7261 9.13825 25.6109C13.7895 28.8637 20.4293 27.5931 23.2384 21.96C25.1307 18.1608 25.3652 14.1625 24.4023 10.0965C23.7576 7.38158 22.4807 4.96738 20.0651 3.3198C16.0502 0.575234 10.7375 1.23596 7.53062 4.82338C5.06895 7.58065 4.4033 10.9224 4.26514 14.836ZM28.9991 14.603C28.974 22.879 22.8533 29.0797 14.7859 28.9993C6.53005 28.9145 0.518207 22.7435 0.572632 14.4082C0.627057 6.15754 6.67657 0.181338 14.9491 0.210986C23.1086 0.240634 29.0242 6.29731 28.9991 14.603Z" fill="#FF5A39"/>
<path d="M27.3789 0L0 27.434H1.53503L28.9097 0H27.3789Z" fill="#FF5A39"/>
</svg>
