<svg width="47" height="47" viewBox="0 0 47 47" fill="none" xmlns="http://www.w3.org/2000/svg">
<path d="M23.499 4.41667C34.0328 4.41667 42.5828 12.966 42.583 23.4997C42.583 34.0335 34.0329 42.5837 23.499 42.5837C12.9653 42.5835 4.41602 34.0334 4.41602 23.4997C4.41619 12.9661 12.9654 4.41684 23.499 4.41667ZM31.5479 15.2253C31.0812 15.2253 30.5441 15.3516 29.4873 15.735C28.4218 16.1216 26.7713 16.7921 24.0527 17.9264C22.1488 18.7115 18.3481 20.3573 12.6387 22.8405C12.163 23.0328 11.7661 23.2329 11.4746 23.4479C11.1973 23.6524 10.923 23.9383 10.8799 24.3258C10.8453 24.6319 10.932 24.9056 11.1113 25.1296C11.2762 25.3354 11.5024 25.4786 11.7227 25.5866C12.1494 25.7959 12.755 25.9635 13.334 26.1471V26.1481C13.8421 26.3175 14.4372 26.4975 14.998 26.6383C15.5475 26.7763 16.1011 26.8854 16.5117 26.8971V26.8981C17.2908 26.9225 18.1012 26.5821 18.9209 26.029L18.9219 26.0299C21.5948 24.2284 23.6154 22.8729 24.9893 21.9635C25.461 21.6513 25.8559 21.3924 26.1738 21.1862C25.6963 21.6639 25.0749 22.2612 24.4434 22.8571C23.1579 24.0701 21.8097 25.3052 21.6572 25.4577L21.6543 25.4606C21.5215 25.5957 21.3854 25.7256 21.248 25.8561C21.1129 25.9845 20.9739 26.1158 20.8457 26.2448C20.597 26.495 20.3376 26.7855 20.1924 27.1149C20.0321 27.4785 20.0144 27.882 20.2295 28.2926C20.4256 28.6669 20.7945 29.0064 21.3047 29.3415V29.3424C22.1333 29.8883 22.7917 30.3364 23.46 30.7917C24.1282 31.247 24.8069 31.7089 25.6719 32.279C25.9369 32.4541 26.1856 32.6355 26.4443 32.819C26.698 32.999 26.9597 33.1801 27.2275 33.3366C27.7662 33.6512 28.3715 33.8901 29.084 33.8288H29.0918L29.0986 33.8278C29.9529 33.7292 30.5797 32.9296 30.8643 31.4059V31.4049C31.5102 27.9405 32.7878 20.4006 33.084 17.2809L33.085 17.2692C33.097 17.1013 33.0907 16.918 33.0859 16.7848C33.0834 16.713 33.0806 16.6571 33.0801 16.611C33.0795 16.5564 33.0822 16.5522 33.0791 16.571L33.0908 16.4997L33.082 16.4274C33.0553 16.2139 32.9674 15.849 32.6309 15.5758H32.6318C32.4327 15.41 32.1985 15.3275 32.0176 15.2839C31.8324 15.2392 31.6603 15.2253 31.5479 15.2253Z" stroke="#FF5A39"/>
</svg>
