<svg width="46" height="46" viewBox="0 0 46 46" fill="none" xmlns="http://www.w3.org/2000/svg">
<path d="M23.0029 4.33333C33.3124 4.33349 41.6689 12.6908 41.6689 23.0003C41.6688 33.3097 33.3123 41.6662 23.0029 41.6663H23.002C19.7035 41.672 16.4625 40.7998 13.6133 39.138L13.4326 39.0316L13.2305 39.0872L4.55566 41.4535L6.91699 32.7757L6.97266 32.5736L6.86719 32.3929C5.20421 29.5429 4.33023 26.301 4.33594 23.0013V23.0003C4.33594 12.6907 12.6933 4.33333 23.0029 4.33333ZM16.8848 13.4984C16.605 13.4823 16.3243 13.4846 16.0449 13.5062V13.5081C15.7352 13.5305 15.4331 13.6135 15.1543 13.7503L15.1406 13.7562L15.1279 13.764C14.9408 13.8702 14.7653 13.9956 14.6055 14.139L14.4678 14.2718C14.2014 14.5227 14.0423 14.7505 13.9141 14.9173C13.1859 15.864 12.773 17.0129 12.7295 18.2025L12.7256 18.4408C12.7298 19.4656 12.9979 20.4489 13.4023 21.3509L13.4033 21.3529C14.1652 23.0331 15.3793 24.7901 16.96 26.43L17.2812 26.7562C17.6852 27.1582 18.1021 27.5826 18.5498 27.9769C20.723 29.8901 23.3122 31.2705 26.1123 32.0072L26.1377 32.014L26.1641 32.0179L27.2529 32.1839L27.2773 32.1878L27.3018 32.1898C27.6893 32.2107 28.0808 32.1807 28.418 32.1644H28.4209C29.0515 32.1311 29.6669 31.9597 30.2246 31.6634C30.4869 31.5276 30.7438 31.3813 30.9932 31.223L31.0049 31.2152L31.0059 31.2142L31.0068 31.2132C31.0078 31.2125 31.0101 31.2114 31.0117 31.2103C31.0149 31.2081 31.0191 31.2052 31.0244 31.2015C31.036 31.1935 31.0528 31.1816 31.0742 31.1663C31.1171 31.1359 31.18 31.0912 31.2617 31.0306C31.5393 30.825 31.7208 30.67 31.958 30.4222L31.957 30.4212C32.1558 30.2157 32.3205 29.9806 32.4492 29.7171L32.4502 29.7132C32.6322 29.333 32.7917 28.6776 32.8564 28.1536V28.1527C32.9069 27.736 32.892 27.4974 32.8857 27.3587H32.8867C32.8781 27.1288 32.7817 26.9292 32.6729 26.7826C32.5627 26.6342 32.4125 26.5037 32.2402 26.4202L32.2334 26.4163L32.2275 26.4134L31.1113 25.9134L31.1064 25.9115L31.1055 25.9105C31.1047 25.9101 31.1031 25.9102 31.1016 25.9095C31.0984 25.9081 31.094 25.9053 31.0879 25.9027C31.0755 25.8973 31.0569 25.8896 31.0332 25.8792C30.9857 25.8585 30.917 25.828 30.8311 25.7904C30.6591 25.7151 30.4191 25.6101 30.1475 25.4906C29.6034 25.2511 28.9336 24.9545 28.4268 24.724L28.4189 24.721L28.2959 24.6732C28.1701 24.6315 28.039 24.6072 27.9062 24.6009L27.9053 24.6019C27.7126 24.5857 27.5185 24.6077 27.335 24.6693C27.1572 24.729 26.9934 24.8244 26.8525 24.9476C26.8419 24.9555 26.8331 24.961 26.8281 24.9652C26.7998 24.9886 26.7737 25.0152 26.7529 25.0365C26.7079 25.0827 26.6397 25.1569 26.5352 25.2767C26.3239 25.5188 25.9421 25.9702 25.249 26.8099L25.2402 26.8197L25.2334 26.8304C25.2132 26.8575 25.1851 26.8777 25.1533 26.889C25.1217 26.9002 25.0872 26.902 25.0547 26.8939C24.9541 26.8669 24.8555 26.8324 24.7598 26.7913L24.7559 26.7904L24.2793 26.5853C23.2269 26.1268 22.2521 25.5072 21.3916 24.7474L21.3896 24.7454L21.0576 24.4359C20.9474 24.3288 20.8351 24.2171 20.7129 24.099L20.7109 24.098L20.4443 23.8333C19.8325 23.2081 19.293 22.5153 18.8369 21.7679L18.835 21.764L18.7217 21.5824L18.7168 21.5736L18.6357 21.4329C18.6173 21.3959 18.6021 21.3573 18.5869 21.3187C18.5874 21.3121 18.5875 21.3015 18.5938 21.2865C18.5983 21.2756 18.6037 21.2661 18.6074 21.2601L18.6094 21.2591C18.6228 21.2443 18.6422 21.223 18.666 21.1966C18.7138 21.1437 18.7796 21.07 18.8525 20.9876C18.9958 20.8259 19.1754 20.6191 19.2939 20.4681C19.516 20.1855 19.7042 19.9093 19.8291 19.7074L19.8301 19.7083C20.084 19.2994 20.2308 18.7915 20.0801 18.3206L20.0459 18.2269C19.5076 16.912 18.9511 15.6039 18.377 14.3031C18.2665 14.0527 18.0664 13.874 17.874 13.7572C17.678 13.6381 17.4505 13.5585 17.2266 13.5316H17.2275C17.116 13.5178 17.0042 13.5066 16.8926 13.4984H16.8848Z" stroke="#FF5A39"/>
</svg>
